<svg xmlns="http://www.w3.org/2000/svg" viewBox="0 0 500 500"><path d="m82.59 249.56-13.12.27-6.66.12c-2.23 0-4.47 0-6.7.05h-.44v-.44l-.06-11.19v-.51h.5l13.24.06c4.42 0 8.83.11 13.24.16h.28v.27c0 1.89-.09 3.78-.13 5.65Zm0 0-.14-5.66c0-1.86-.11-3.7-.13-5.53l.27.27c-4.41.05-8.82.16-13.24.16l-13.24.07.5-.5v11.19l-.45-.45h6.55l6.58.12ZM67.82 263.67l-13.12.27-6.66.12c-2.23 0-4.47 0-6.7.05h-.44v-.44l-.06-11.19V252h.5l13.24.06c4.41 0 8.83.11 13.24.16h.28v.27c0 1.89-.08 3.78-.13 5.65Zm0 0-.14-5.67c-.05-1.86-.11-3.7-.13-5.53l.27.27c-4.41.05-8.83.16-13.24.16l-13.24.1.5-.49-.05 11.19-.45-.45h6.55l6.58.12ZM458.66 263.67l-13.13.27-6.66.12c-2.22 0-4.46 0-6.69.05h-.45v-.44l-.05-11.19V252h.5l13.24.06c4.41 0 8.83.11 13.24.16h.27v.27c0 1.89-.08 3.78-.13 5.65Zm0 0-.14-5.66c0-1.86-.12-3.7-.13-5.53l.27.27c-4.41.05-8.83.16-13.24.16l-13.24.06.5-.49-.06 11.19-.44-.45h6.54l6.58.12ZM443.89 65.2l-13.13.28-6.66.11c-2.22 0-4.46 0-6.69.06H417V53.51h.51l13.24.06c4.41 0 8.82.12 13.24.17h.27V54c0 1.9-.09 3.79-.13 5.65Zm0 0-.14-5.65c-.05-1.87-.12-3.71-.14-5.54l.28.27c-4.42 0-8.83.16-13.24.17l-13.24.06.5-.5-.06 11.19-.44-.45c2.18 0 4.35 0 6.54.06l6.58.11ZM458.66 79.31l-13.13.28-6.66.11c-2.22 0-4.46 0-6.69.06h-.45v-.45l-.05-11.19v-.5h.5l13.24.06c4.41 0 8.83.12 13.24.17h.27v.27c0 1.9-.08 3.79-.13 5.65Zm0 0-.14-5.65c0-1.87-.12-3.71-.13-5.54l.27.27c-4.41 0-8.83.16-13.24.17l-13.24.06.5-.5-.06 11.19-.44-.45c2.18 0 4.36 0 6.54.06l6.58.11ZM82.59 65.2l-13.12.28-6.66.11c-2.23 0-4.47 0-6.7.06h-.44v-.45L55.61 54v-.5h.5l13.24.06c4.42 0 8.83.12 13.24.17h.28V54c0 1.9-.09 3.79-.13 5.65Zm0 0-.14-5.65c0-1.87-.11-3.71-.13-5.54l.27.27c-4.41 0-8.82.16-13.24.17l-13.24.06.5-.5V65.2l-.45-.45c2.18 0 4.36 0 6.55.06l6.58.11ZM75.01 153.91l112.08-17.73-11.94-74.94L63.07 78.96l11.94 74.95z" style="fill:#ebebeb"/><path d="m78.92 148.5 102.78-16.25-10.46-65.61L68.46 82.89l10.46 65.61z" style="fill:#dbdbdb"/><path d="M81 101.87a11.32 11.32 0 1 0 9.41-13 11.33 11.33 0 0 0-9.41 13Z" style="fill:#c7c7c7"/><path d="m110.85 143.56 70.79-11.19-42.98-42.39-27.81 53.58z" style="fill:#a6a6a6"/><path d="m83.1 147.97 58.45-9.24-34.16-26.63-24.29 35.87z" style="fill:#c7c7c7"/><path d="m145.91 152.02 92.58 8.01 5.29-61.93-92.59-8.01-5.28 61.93z" style="fill:#ebebeb"/><path d="m150.09 148.5 84.89 7.34 4.62-54.22-84.9-7.34-4.61 54.22z" style="fill:#fff"/><path d="M161 111.85a9.27 9.27 0 1 0 10-8.44 9.27 9.27 0 0 0-10 8.44Z" style="fill:#dbdbdb"/><path d="m176.44 150.86 58.48 5.06-25.82-42.17-32.66 37.11z" style="fill:#ebebeb"/><path d="m153.51 148.9 48.28 4.17-21.91-27.9-26.37 23.73z" style="fill:#dbdbdb"/><path d="M421.83 0h1v91.16h-1z" style="fill:#c7c7c7"/><path d="m390.67 121.68 2.55 5.59h58.23l2.53-5.59-24.79-17.16h-13.73l-24.79 17.16z" style="fill:#ebebeb"/><path d="m413.74 87.99 1.72 16.53h13.73l1.73-16.53h-17.18zM390.68 121.68l2.54 5.6h58.23l2.54-5.6h-63.31z" style="fill:#dbdbdb"/><path d="M353.86 0h1v73.1h-1z" style="fill:#c7c7c7"/><path d="m322.7 103.62 2.55 5.6h58.23l2.53-5.6-24.78-17.16h-13.74l-24.79 17.16z" style="fill:#ebebeb"/><path d="m345.77 69.93 1.72 16.53h13.74l1.72-16.53h-17.18zM322.71 103.62l2.54 5.6h58.23l2.54-5.6h-63.31z" style="fill:#dbdbdb"/><ellipse cx="250" cy="431.75" rx="203" ry="19.22" style="fill:#ebebeb"/><path d="M436.67 333.94s7.27-26.08 13.07-34.93 16.62-18.59 16.62-18.59-.26 40.21-29.69 53.52Z" style="fill:#036670"/><path d="M437.19 333.5a125.48 125.48 0 0 0 6.63-12.64 88.34 88.34 0 0 1 3.6-13.71.07.07 0 0 1 .13 0c-1 4.12-2.08 8.21-3.1 12.31 2.93-6.34 5.72-12.77 9.21-18.77a40 40 0 0 1 3.37-8.34c0-.08.17 0 .13 0a55.14 55.14 0 0 0-2.27 6.26 62.5 62.5 0 0 1 5.52-7.62c.13-.15.38 0 .26.17-4.67 6-7.9 12.74-11 19.61a104.83 104.83 0 0 0 9.12-11.39h.06a94.18 94.18 0 0 1-9.76 12.66c-2.24 5-4.43 10.08-7.1 14.86 5.33-4.5 9.43-10.33 13.48-15.95a.12.12 0 0 1 .2.14c-4.06 6.17-8.26 12-14.09 16.54a67.06 67.06 0 0 1-3.9 6.1.31.31 0 0 1-.49-.23Z" style="fill:#263238"/><path d="M434.42 336.29s13.06-24 9.27-47.36-7.86-31.61-7.86-31.61-20.53 36.26-1.41 78.97Z" style="fill:#036670"/><path d="M429.06 298.49a113.66 113.66 0 0 0 5 19.41c0-8.55.2-17.11.43-25.66a66.6 66.6 0 0 1-2.47-15.94c0-.15.23-.14.25 0a90.59 90.59 0 0 0 2.32 13.7q.3-10.59.69-21.17a.1.1 0 0 1 .19 0c0 11 0 22-.08 33.08a87.68 87.68 0 0 0 3.77-13.1s.08 0 .08 0a51.47 51.47 0 0 1-3.86 14.91c-.05 7.05-.13 14.09-.28 21.14 2.21-7.49 4.57-14.75 5.2-22.67a.09.09 0 0 1 .17 0c-.17 8.73-2.42 17.59-5.3 25.8a.57.57 0 0 1-.15.21c-.06 2.57-.14 5.15-.22 7.72a.29.29 0 0 1-.58 0q-.15-7.9-.13-15.8a71.19 71.19 0 0 1-5.15-21.65c0-.03.11-.05.12.02Z" style="fill:#263238"/><path d="M430 294.77a44.17 44.17 0 0 1 .92 6.35c0 .07-.11.08-.13 0a45.12 45.12 0 0 1-1.07-6.34c-.07-.14.2-.17.28-.01ZM437.59 277.19c0-.07.12-.05.12 0a16.23 16.23 0 0 1-.65 4.38c0 .12-.2.07-.18 0 .29-1.47.46-2.93.71-4.38Z" style="fill:#263238"/><path d="M429.66 338.13s.53-25.1-6.67-37.58a54.15 54.15 0 0 0-19.14-18.83s4.81 44.28 25.81 56.41Z" style="fill:#036670"/><path d="M416.54 316.67a93.62 93.62 0 0 0 9.74 12.33q-2.16-7.71-5-15.14c-4-3.54-8-7.21-10.52-12.05a.07.07 0 0 1 .12-.07 50.27 50.27 0 0 0 10 11 193.32 193.32 0 0 0-10-21.82.16.16 0 0 1 .28-.17 119 119 0 0 1 6.28 11.46c-.67-2.68-1.21-5.43-1.9-8.09a.06.06 0 0 1 .11 0 45.35 45.35 0 0 1 3 10.64 128.19 128.19 0 0 1 6.26 17.24c-.19-3.76-.42-7.51-.81-11.26 0-.07.11-.09.12 0a61 61 0 0 1 1.09 12.65q1.56 5.61 2.62 11.33c0 .11-.14.15-.16.05-.39-1.6-.82-3.19-1.25-4.77h-.08a51.06 51.06 0 0 1-9.94-13.21s.02-.15.04-.12Z" style="fill:#263238"/><path d="M408.19 296.24c.81.87 1.54 1.78 2.32 2.67a21.52 21.52 0 0 1 2.07 2.42l-.06.06a12.14 12.14 0 0 1-2.39-2.36 19.79 19.79 0 0 1-2.05-2.7c-.08-.07.06-.15.11-.09Z" style="fill:#263238"/><path d="m451.05 335.07-.91 11.93-2.73 35.94h-23.86L420.82 347l-.91-11.89h31.14Z" style="fill:#455a64"/><path d="m451.05 335.07-.91 11.93h-29.32l-.91-11.89h31.14Z" style="fill:#37474f"/><path d="M417.79 329.23h35.38v9.12h-35.38z" style="fill:#455a64" transform="rotate(180 435.48 333.79)"/><path d="m36.47 382.86 53.38-.24 53.38-.09 106.77-.16 106.77.16 53.38.09 53.38.24-53.38.25-53.38.09-106.77.16-106.77-.17-53.38-.08-53.38-.25z" style="fill:#263238"/><path d="M77.62 431h226.85l-24.84-156.81H52.79L77.62 431zM196.91 257.95h80.15l2.57 16.24h-84.75l2.03-16.24z" style="fill:#036670"/><g style="opacity:.1"><path d="M77.62 431h226.85l-24.84-156.81H52.79L77.62 431zM196.91 257.95h80.15l2.57 16.24h-84.75l2.03-16.24z"/></g><path d="M84.26 164.16a14.79 14.79 0 0 1-.5-4 15.16 15.16 0 0 1 .5-4 14.39 14.39 0 0 1 .5 4 15.18 15.18 0 0 1-.5 4ZM76 166.53a16.78 16.78 0 0 1-4-7 16.78 16.78 0 0 1 4 7ZM70.09 172.7a14.91 14.91 0 0 1-3.75-1.59 14.73 14.73 0 0 1-3.25-2.46 14.55 14.55 0 0 1 3.75 1.59 14.73 14.73 0 0 1 3.25 2.46ZM68 181a16.37 16.37 0 0 1-8 0 14.66 14.66 0 0 1 4-.49 15 15 0 0 1 4 .49ZM70.4 189.24a16.5 16.5 0 0 1-7 4 14.43 14.43 0 0 1 3.26-2.45 14.91 14.91 0 0 1 3.74-1.55ZM76.56 195.19a14.85 14.85 0 0 1-1.56 3.75 14.4 14.4 0 0 1-2.45 3.24 14.63 14.63 0 0 1 1.59-3.74 15 15 0 0 1 2.42-3.25ZM84.88 197.25a14.75 14.75 0 0 1 .49 4 14.3 14.3 0 0 1-.5 4 14.3 14.3 0 0 1-.5-4 14.73 14.73 0 0 1 .51-4ZM93.1 194.88a14.38 14.38 0 0 1 2.45 3.25 14.85 14.85 0 0 1 1.59 3.75 14.38 14.38 0 0 1-2.45-3.25 14.7 14.7 0 0 1-1.59-3.75ZM99.05 188.71a16.59 16.59 0 0 1 7 4 16.43 16.43 0 0 1-7-4ZM101.11 180.39a14.66 14.66 0 0 1 4-.49 14.39 14.39 0 0 1 4 .5 16.41 16.41 0 0 1-8.08 0ZM98.74 172.16a15 15 0 0 1 3.25-2.45 14.53 14.53 0 0 1 3.75-1.58 15 15 0 0 1-3.25 2.45 15.2 15.2 0 0 1-3.75 1.58ZM92.57 166.22a14.55 14.55 0 0 1 1.59-3.75 14.73 14.73 0 0 1 2.46-3.25 16.83 16.83 0 0 1-4.05 7Z" style="fill:#263238"/><path d="m99.85 286.21 158.99-22.67-15.28-106.32-158.99 22.67 15.28 106.32z" style="fill:#ebebeb"/><path d="m105.5 278.65 145.8-20.79-13.4-93.08-145.79 20.79 13.39 93.08z" style="fill:#036670"/><path d="M109.77 208.86a14.72 14.72 0 1 0 12.49-16.65 14.7 14.7 0 0 0-12.49 16.65Z" style="opacity:.1"/><path d="m150.79 272.34 100.43-14.32-59.92-60.9-40.51 75.22z" style="opacity:.2"/><path d="m111.43 277.99 82.91-11.83-47.77-38.41-35.14 50.24z" style="fill:#036670"/><path d="m111.43 277.99 82.91-11.83-47.77-38.41-35.14 50.24z" style="opacity:.1"/><path d="m146.03 286.69 157.93 38.72 25.78-105.66-157.93-38.72-25.78 105.66z" style="fill:#ebebeb"/><path d="m154.2 281.72 144.82 35.5 22.55-92.5-144.81-35.5-22.56 92.5z" style="fill:#fff"/><path d="M182.85 221.27a16.23 16.23 0 1 0 19.62-11.89 16.22 16.22 0 0 0-19.62 11.89ZM199.13 292.88l99.76 24.46-33.31-79.83-66.45 55.37z" style="fill:#dbdbdb"/><path d="m160.02 283.33 82.36 20.19-30.39-54.12-51.97 33.93z" style="fill:#ebebeb"/><path d="m69.87 339.33 146.3-.31-.31-97.84-146.3.3.31 97.85z" style="fill:#ebebeb"/><path d="m75.93 333.22 134.15-.28-.28-85.66-134.16.28.29 85.66z" style="fill:#455a64"/><path d="M87.89 274.24a14.6 14.6 0 1 0 14.57-14.63 14.61 14.61 0 0 0-14.57 14.63Z" style="fill:#37474f"/><path d="m117.58 333.27 92.41-.19-46.33-62.54-46.08 62.73z" style="fill:#263238"/><path d="m81.36 333.37 76.29-.16-38.23-40.7-38.06 40.86z" style="fill:#37474f"/><path d="m190.77 393.42 142.7 13.79 9.12-95.45-142.69-13.79-9.13 95.45z" style="fill:#ebebeb"/><path d="m197.27 388.05 130.85 12.65 7.98-83.57-130.86-12.65-7.97 83.57z" style="fill:#fff"/><path d="M214.62 331.68a14.3 14.3 0 1 0 15.61-12.86 14.31 14.31 0 0 0-15.61 12.86ZM237.89 392.11l90.13 8.71-39.16-65.44-50.97 56.73z" style="fill:#dbdbdb"/><path d="m202.55 388.72 74.42 7.19-33.36-43.37-41.06 36.18z" style="fill:#ebebeb"/><path d="M77.52 431h226.84l17.5-143.8H95.01L77.52 431zM243.52 272.31h80.15l-1.81 14.89H237.1l6.42-14.89z" style="fill:#036670"/><path d="M408.29 413.84c3.46-1.87 8.14-2.75 11.79-1 .14.07.05.27-.08.27a54.08 54.08 0 0 0-11.55 1.22.25.25 0 0 1-.16-.49ZM406.14 416.29c3.46-1.86 8.15-2.74 11.8-1 .14.06 0 .26-.09.26a54.64 54.64 0 0 0-11.54 1.22.25.25 0 0 1-.17-.48ZM404 418.75c3.46-1.87 8.14-2.75 11.8-1 .14.07 0 .27-.09.27a54.08 54.08 0 0 0-11.55 1.22.25.25 0 0 1-.16-.49ZM401.86 421.2c3.46-1.87 8.14-2.75 11.79-1 .14.07.05.27-.08.27a54.08 54.08 0 0 0-11.57 1.19.25.25 0 0 1-.14-.46Z" style="fill:#263238"/><path d="M402.09 412.22c3.25 1.19 6.9.93 10.31 1.08.35 0 .5-.36.43-.64a.11.11 0 0 0 0-.16 20.64 20.64 0 0 0-8.37-6.62c-1.95-.8-4.94-.83-5.74 1.63s1.47 4.02 3.37 4.71Zm-1.89-2.66c-1.94-3.83 3.07-3.1 4.49-2.46a21.82 21.82 0 0 1 2.62 1.49c1.77 1.12 3.34 2.47 5 3.75-1.67-.17-3.33-.21-5-.32-2.01-.14-6.04-.35-7.11-2.46Z" style="fill:#263238"/><path d="M423.36 403c-1.63-2-4.4-.93-5.94.51a20.69 20.69 0 0 0-5.49 9.16c0 .08 0 .12.1.13 0 .29.31.59.63.45 3.13-1.35 6.64-2.4 9.26-4.67 1.53-1.37 2.98-3.73 1.44-5.58Zm-6.36 7.19c-1.52.7-3.06 1.32-4.56 2.08 1.08-1.79 2.07-3.61 3.32-5.28a22.61 22.61 0 0 1 1.93-2.32c1.09-1.1 5.52-3.56 5.07.71-.28 2.35-3.96 3.97-5.76 4.81Z" style="fill:#263238"/><path d="M447.07 408.58c.23 1.33.44 2.64.65 3.9 1.32 8.14 2.1 14.41 1.49 15-1.87 1.79-58 13.05-60.09 12.79s-1.49-6.25.34-8.42c1.11-1.32 8.78-7 14.62-11.22 3.76-2.71 6.76-4.85 6.76-4.85l-11.26-36.4 37.72-7.42s9.41 34.46 9.77 36.62Z" style="fill:#ad6359"/><path d="M389.11 440.25c2.1.25 58.23-11 60.1-12.79.61-.58-.17-6.85-1.5-15-.2-1.26-.41-2.57-.64-3.91-.13-.75-1.37-5.46-2.91-11.26l-36.72 7.37 3.42 11.05s-3 2.13-6.76 4.85c-5.84 4.24-13.51 9.9-14.62 11.22-1.85 2.22-2.48 8.22-.37 8.47Z" style="fill:#ebebeb"/><path d="M388.65 440.61c1.39.17 25.73-4.67 43.37-8.63 4.08-.91 7.81-1.79 10.8-2.53 4.13-1 6.88-1.83 7.28-2.21.68-.66-3.62-23.67-4.37-26.34l-37.32 7.72 2.19 6.9S390.83 429.76 389 432s-2.49 8.35-.35 8.61Z" style="fill:#036670"/><path d="M389.53 438c9.57-2.21 48.4-10.24 58-11.7.08 0 .09 0 0 .06-9.44 2.4-48.33 10.11-58 11.8-.17.08-.2-.07 0-.16ZM399.63 399.8c-.41-.2-11.34-47.14-16.33-66.29-7.2-27.63-14.17-72.65-16.27-82a138 138 0 0 1-8.72-33.65s45.38 0 45.38 0 11.9 22.77 5.76 38.86c-.56 1.47 7.93 58.34 12.31 67.54 3.8 8 21.1 66.28 21.1 66.28Z" style="fill:#263238"/><path d="M399.87 390.17c1.11-.4 2.3-.6 3.44-.9s2.42-.61 3.64-.89c2.43-.55 4.86-1.07 7.3-1.6 4.87-1 9.76-2 14.64-3 1.34-.28 2.68-.54 4-.79a22.63 22.63 0 0 1 4.07-.62.08.08 0 0 1 0 .14 21 21 0 0 1-3.41 1c-1.21.3-2.42.58-3.64.86-2.39.54-4.79 1.09-7.18 1.61-4.84 1-9.66 2.13-14.51 3.11-1.38.27-2.75.56-4.13.78s-2.76.59-4.15.7c-.14-.06-.27-.32-.07-.4ZM378.91 249.39c.87 4.73 1.6 9.48 2.38 14.22.4 2.42.93 4.81 1.33 7.23s.78 4.74 1.16 7.12q2.3 14.31 4.57 28.64l2.28 14.22a131.06 131.06 0 0 0 2.87 13.86c1.25 4.56 2.72 9.06 4.11 13.58s2.85 9.26 4.27 13.9c2.83 9.21 2.43 10.78 5 20.07.31 1.16.63 2.31 1 3.47 0 .13-.16.18-.21.05-3.13-9.13-2.69-10.7-5.6-19.9s-5.83-18.31-8.57-27.52a118.07 118.07 0 0 1-3.2-13.65c-.81-4.74-1.51-9.51-2.27-14.26q-2.28-14.31-4.57-28.64c-.75-4.69-1.58-9.38-2.16-14.1-.6-4.89-1.44-9.74-2.17-14.61-.18-1.19-.35-2.38-.51-3.58-.13-.24.24-.35.29-.1Z" style="fill:#37474f"/><path d="M339.89 417c3.86-.74 8.59-.18 11.56 2.56.11.1 0 .26-.16.22a55.17 55.17 0 0 0-11.39-2.29.25.25 0 0 1-.01-.49ZM337.11 418.67c3.86-.75 8.59-.18 11.56 2.55.11.11 0 .27-.16.23a55 55 0 0 0-11.39-2.29.25.25 0 0 1-.01-.49ZM334.33 420.37c3.86-.75 8.59-.18 11.56 2.55.11.11 0 .27-.16.23a53.76 53.76 0 0 0-11.39-2.29.25.25 0 0 1-.01-.49ZM331.55 422.07c3.86-.75 8.59-.18 11.56 2.55.11.11 0 .27-.16.23a53.79 53.79 0 0 0-11.38-2.29.25.25 0 0 1-.02-.49Z" style="fill:#263238"/><path d="M334.46 413.57c2.74 2.11 6.31 3 9.51 4.12.33.12.59-.19.6-.49a.1.1 0 0 0 .09-.14 20.6 20.6 0 0 0-6-8.82c-1.62-1.34-4.45-2.26-6-.16s.19 4.26 1.8 5.49Zm-1-3.1c-.7-4.24 3.86-2 5-1a22.54 22.54 0 0 1 2.06 2.2 59.87 59.87 0 0 1 3.62 5.07c-1.53-.67-3.11-1.2-4.67-1.81-1.85-.72-5.63-2.13-6.02-4.46Z" style="fill:#263238"/><path d="M357.53 411.09c-.95-2.4-3.92-2.2-5.83-1.29a20.74 20.74 0 0 0-8 7.1.1.1 0 0 0 .06.15.47.47 0 0 0 .46.62c3.39-.35 7.05-.3 10.23-1.68 1.88-.8 3.98-2.62 3.08-4.9Zm-8.25 5c-1.66.22-3.32.35-5 .62a61 61 0 0 1 4.75-4 21.08 21.08 0 0 1 2.54-1.63c1.37-.73 6.33-1.75 4.62 2.18-.93 2.14-4.93 2.58-6.91 2.83Z" style="fill:#263238"/><path d="M378.6 412.52c0 2.29-1 25.22-1.7 25.66-2.18 1.39-59.43 1.56-61.43.9s-.25-6.42 2-8.2c1.35-1.08 10-5.15 16.52-8.17 4.22-1.94 7.57-3.45 7.57-3.45l-.18-6.72-.52-30.6h37.82s.18 15.73-.08 30.58Z" style="fill:#ad6359"/><path d="M315.46 439.07c2 .66 59.26.49 61.44-.89.71-.45 1.67-23.38 1.7-25.66 0-1.52 0-3 .06-4.56h-37.38l.08 4.56.19 6.71s-3.36 1.52-7.57 3.46c-6.55 3-15.17 7.1-16.52 8.18-2.24 1.78-3.99 7.54-2 8.2Z" style="fill:#ebebeb"/><path d="M314.11 439.54c1.33.44 26.15.44 44.22 0 4.18-.1 8-.23 11.09-.38 4.26-.21 7.11-.45 7.57-.74.8-.52 1.94-23.93 1.72-26.69l-37.83.2-.13 7.21s-22.38 10.17-24.65 12-4.03 7.72-1.99 8.4Z" style="fill:#036670"/><path d="M315.48 437.19c9.82-.3 49.46-.59 59.19-.14.08 0 .08.05 0 .06-9.73.51-49.37.48-59.19.25-.21-.01-.21-.16 0-.17ZM385.36 258.43s-6.47 63.44-6.57 64.93c-.05.59 2.77 78.11 2.77 78.11H338.8s1.52-72.64 2.17-81.6c.08-1 2.84-65.53 15.29-102h47.49s-.41 21.45-10.17 37a81.18 81.18 0 0 0-8.22 3.56Z" style="fill:#263238"/><path d="M341.5 393.46c1.17-.17 2.37-.13 3.55-.19s2.5-.12 3.74-.15c2.5-.05 5-.07 7.48-.1 5-.06 10 0 15 0h4.09a22.57 22.57 0 0 1 4.11.22c.07 0 .06.12 0 .14a20.9 20.9 0 0 1-3.53.26c-1.25.05-2.49.08-3.74.11-2.45 0-4.91.1-7.36.13-5 .07-9.89.15-14.84.14-1.4 0-2.8 0-4.2-.06s-2.83 0-4.21-.15c-.22-.03-.3-.32-.09-.35ZM351.19 326.91c1.12-22.85 3.53-45.6 6.55-68.27 1.66-12.41 3.6-24.81 6.95-36.89h.08a292.9 292.9 0 0 0-5.9 33.53c-1.42 11.16-2.76 22.35-3.9 33.54-2.3 22.72-3.33 45.53-3.47 68.36-.08 12.85.27 18.9.62 31.74 0 .12-.18.11-.19 0-1.88-22.83-1.86-39.13-.74-62.01ZM353.48 226.67c0-.08.15-.06.14 0-.18 2.7-.63 5.65.57 8.2 1.06 2.25 3.07 3.52 4.93 5 .06 0 0 .14-.08.12-2.46-.75-4.92-2.12-5.89-4.65-1.09-2.77-.51-5.86.33-8.67ZM374.08 257a45.27 45.27 0 0 1 5.93.2 40.09 40.09 0 0 0 5.8-.11 21.63 21.63 0 0 0 2.88-.48c1-.23 1.92-.59 2.89-.86a5.37 5.37 0 0 1 2.67.1c1 .23 2.06.4 3.11.53a30.34 30.34 0 0 0 7.19.19c.09 0 .13.12 0 .14a29.24 29.24 0 0 1-6.12.64 24 24 0 0 1-3.15-.29 10.15 10.15 0 0 0-2.94-.38 26.84 26.84 0 0 0-2.87 1 22.54 22.54 0 0 1-2.92.59 30.33 30.33 0 0 1-5.95.19 26.4 26.4 0 0 1-6.62-1 .21.21 0 0 1 .1-.46ZM378.68 319.87a.07.07 0 0 1 .05 0 .07.07 0 0 1 .06 0 .09.09 0 0 1 0 .06v.15a.08.08 0 0 1-.06 0v-.15a.07.07 0 0 1-.05-.06Z" style="fill:#37474f"/><path d="M379.81 309q.57-6.18 1.21-12.34c.86-8.22 1.68-16.44 2.53-24.67.48-4.66.82-9.36 1.59-14 0-.12.2-.13.2 0-.07 4.12-.51 8.25-.86 12.35s-.71 8.23-1.1 12.34c-.77 8.23-1.51 16.46-2.47 24.67q-.41 3.49-.87 7c-.3 2.33-.71 4.65-1 7 0 .1-.16.1-.16 0 .36-4.17.55-8.3.93-12.35Z" style="fill:#37474f"/><path d="m284.58 201.61 107.29-14.37-9.69-71.74-107.29 14.36 9.69 71.75z" style="fill:#ebebeb"/><path d="m288.44 196.54 98.37-13.17-8.49-62.81-98.38 13.17 8.5 62.81z" style="fill:#036670"/><path d="M292.53 149.42a9.1 9.1 0 1 0 7.81-10.22 9.09 9.09 0 0 0-7.81 10.22Z" style="opacity:.1"/><path d="m319 192.55 67.76-9.08-40.03-41.39L319 192.55z" style="opacity:.2"/><path d="m292.43 196.13 55.95-7.49-31.98-26.17-23.97 33.66z" style="fill:#036670"/><path d="m292.43 196.13 55.95-7.49-31.98-26.17-23.97 33.66z" style="opacity:.1"/><path d="M367.24 129.65c-.95.18-5.16-.05-7.72 3.93-2.42 3.77-2.66 14.77-3.08 17.19s-3.52 3-4.09 5.79c-.48 2.42 1.31 3.19 1.59 4.93.23 1.35-1 3.46.35 5.39 1.24 1.76 3.19 1.25 4.42 1.74s2.15 3.22 4.41 3.83 4.09-1.53 5.26-1.59 2.79 3.45 6.6 2.9 4.71-3.87 6.25-4.6 5.58.11 7.27-2 1.84-4.75 2.59-5.77 2.48-1 3.35-3.28-1.3-3.61-1.72-5.54c-.29-1.35.84-2.67-.14-4.69-1.34-2.78-4.79-1.95-6.3-4.8-1.19-2.23-4-12.08-10.16-14.16-4.27-1.41-8.88.73-8.88.73Z" style="fill:#263238"/><path d="M356.52 150.19a3.51 3.51 0 0 1-.94 1.35l-1.18 1.15a10.46 10.46 0 0 0-2.06 2.47 3.3 3.3 0 0 0-.19 2.93 5.32 5.32 0 0 0 .88 1.28 5.87 5.87 0 0 1 1 1.39 2.85 2.85 0 0 1 0 1.81c-.15.55-.31 1.06-.43 1.58a3.89 3.89 0 0 0 .29 3 2.18 2.18 0 0 0 1.11 1 4.17 4.17 0 0 0 1.55.24c.54 0 1.08 0 1.64-.07a2.77 2.77 0 0 1 1.61.26 2.89 2.89 0 0 0-1.6-.1c-.54.07-1.08.17-1.64.22a4.49 4.49 0 0 1-1.7-.17 2.74 2.74 0 0 1-1.38-1.08A4.24 4.24 0 0 1 353 164c.12-.55.28-1.08.41-1.6a2.32 2.32 0 0 0 0-1.42c-.38-.86-1.42-1.58-1.86-2.69a3.71 3.71 0 0 1 .29-3.4 10.62 10.62 0 0 1 2.27-2.45l1.27-1.05a3.78 3.78 0 0 0 1.14-1.2ZM382.05 134.23a47.31 47.31 0 0 1 2.85 5.17c.46.86.9 1.74 1.42 2.55a7 7 0 0 0 .86 1.11.85.85 0 0 0 .24.2.94.94 0 0 0 .28.16c.21.09.43.18.66.26.9.34 1.86.63 2.77 1.08a5.06 5.06 0 0 1 2.29 2 3.09 3.09 0 0 1 .41 1.52 4.23 4.23 0 0 1-.36 1.48 6.37 6.37 0 0 0-.75 2.81 6.06 6.06 0 0 1 .46-2.91 4 4 0 0 0 .25-1.38A2.81 2.81 0 0 0 393 147a4.82 4.82 0 0 0-2.13-1.75 26.78 26.78 0 0 0-2.74-1c-.23-.09-.47-.18-.7-.29a2.19 2.19 0 0 1-.68-.49 7.24 7.24 0 0 1-.92-1.24 22 22 0 0 1-1.37-2.64l-1.19-2.7a26 26 0 0 0-1.22-2.66ZM392 160.69a5.28 5.28 0 0 0-.51 2c-.11.69-.21 1.39-.35 2.09a10.22 10.22 0 0 1-.61 2.07 4.64 4.64 0 0 1-1.3 1.83 5.83 5.83 0 0 1-4.26.77c-.71-.08-1.41-.21-2.1-.28a4.49 4.49 0 0 0-2.06.14 4 4 0 0 1 2.08-.44c.71 0 1.42.07 2.11.1a5.94 5.94 0 0 0 3.85-.79 4.17 4.17 0 0 0 1.14-1.57 13.9 13.9 0 0 0 .68-1.94c.2-.67.35-1.36.52-2 .09-.34.19-.69.3-1a2 2 0 0 1 .51-.98Z" style="fill:#263238"/><path d="M379.32 164.49c-.07.94-3.43 7.52-7.6 8-1.36.15-2.53-7.22-2.53-7.22l-.21-.53-3-7.34 8-7.21 1.17-1s.67 2.07 1.48 4.64l.12.37c.05.14.1.28.14.42.12.38.25.77.37 1.17l.27.9c.09.32.17.63.27.94a51.48 51.48 0 0 1 1.52 6.86Z" style="fill:#ad6359"/><path d="M376.71 153.86a15.85 15.85 0 0 1-7.71 10.88l-3-7.34 8-7.21 1.17-1s.73 2.1 1.54 4.67Z" style="fill:#263238"/><path d="M353.27 145.48c-2.18 13.72 5.73 16.71 8.75 17 2.7.3 11.88 1.53 15.47-11.89s-2.09-18.77-8.19-20.06-13.84 1.23-16.03 14.95Z" style="fill:#ad6359"/><path d="M354.42 143.62c.33 0 .63-.07 1-.11a1.6 1.6 0 0 0 .95-.3.51.51 0 0 0 .05-.61 1.25 1.25 0 0 0-1.18-.39 1.8 1.8 0 0 0-1.18.54.52.52 0 0 0 .36.87ZM363.07 144.79a8.94 8.94 0 0 1-.92-.28 1.55 1.55 0 0 1-.88-.47.5.5 0 0 1 .05-.6 1.26 1.26 0 0 1 1.23-.18 1.84 1.84 0 0 1 1.07.74.53.53 0 0 1-.55.79ZM360.73 148s.06.06.06.09c-.14.94-.13 2 .68 2.44v.06c-1.03-.26-1.02-1.71-.74-2.59Z" style="fill:#263238"/><path d="M361.68 147.13c1.52.05 1.3 3.1-.11 3s-1.17-3.05.11-3Z" style="fill:#263238"/><path d="M362.26 147.33c.25.19.49.51.81.57s.67-.24.94-.52h.05c0 .59-.3 1.17-.94 1.21s-.94-.51-1.05-1.1c-.02-.08.09-.24.19-.16ZM355.94 147.23s-.07 0-.07.08c0 .95-.23 2-1.1 2.28v.06c1.05-.08 1.3-1.52 1.17-2.42Z" style="fill:#263238"/><path d="M355.17 146.19c-1.52-.21-1.83 2.83-.43 3s1.69-2.82.43-3Z" style="fill:#263238"/><path d="M354.51 146.33c-.26.13-.52.4-.81.39s-.55-.37-.73-.7h-.05c-.07.58.06 1.21.6 1.38s.92-.31 1.12-.87c.04-.09-.03-.26-.13-.2ZM360.49 155.36c-.21.23-.42.55-.76.61a2.82 2.82 0 0 1-1-.17 1.31 1.31 0 0 0 1.24.43 1 1 0 0 0 .68-.89s-.13-.02-.16.02ZM356.56 151.56s-.31 1.39-.37 2.05c0 .07.15.11.38.14a3.15 3.15 0 0 0 3.17-.92c.05-.06 0-.13-.09-.1a4.77 4.77 0 0 1-2.95.59c0-.19.61-2.37.51-2.39a5.89 5.89 0 0 0-1.54.22c.57-2.92 1.6-5.72 2.12-8.63a.09.09 0 0 0-.17-.06 48.36 48.36 0 0 0-2.68 9.2c-.06.34 1.35-.01 1.62-.1Z" style="fill:#263238"/><path d="M357.05 153.52a3.31 3.31 0 0 0 1.16 1.19 1.57 1.57 0 0 0 .89.17c.66-.08.76-.66.71-1.19a3.79 3.79 0 0 0-.18-.81 4.27 4.27 0 0 1-2.58.64Z" style="fill:#263238"/><path d="M358.21 154.71a1.57 1.57 0 0 0 .89.17c.66-.08.76-.66.71-1.19a1.54 1.54 0 0 0-1.6 1.02Z" style="fill:#ff99ba"/><path d="M376.74 153c-1.46-.43-5.25-6.17-3.72-13.35 0 0-.93 6.55-.67 7.6s-1.62-2.79-.47-8.6a23.86 23.86 0 0 1-6.63 1.7c-2.9.14-4.56-.27-4.71-.51s4.15-.58 5.52-1.58c0 0-8 1.69-11.42 1.18-.39-.06 1-8.12 6.92-10.3s13.29 3.35 15 6c0 0 2.49 1 4.42 5.43s-2.67 12.93-4.24 12.43Z" style="fill:#263238"/><path d="M371.89 148.36s3.19-4.22 5.11-3.07-.58 7.35-2.92 8.13A2.35 2.35 0 0 1 371 152Z" style="fill:#ad6359"/><path d="M376.24 147.05v.06a6 6 0 0 0-3.2 3.6 1.3 1.3 0 0 1 1.95-.28s0 .09-.05.08a1.44 1.44 0 0 0-1.6.45 6.61 6.61 0 0 0-.81 1.26c-.08.14-.34.05-.28-.11.06-2.11 1.75-4.93 3.99-5.06Z" style="fill:#263238"/><path d="m355.16 205.19 1.1 12.64s35.79.81 47.43 0c0 0-5.56-38.52-18.34-50.09-6.84-6.2-11.47-7.53-16.16-2.78-1.18 1.2-15.32 19.88-16.8 27-1.3 6.3 2.77 13.23 2.77 13.23Z" style="fill:#455a64"/><path d="M371 168.77a1 1 0 1 1-1-1 1 1 0 0 1 1 1Zm10-1a1 1 0 1 0 1 1 1 1 0 0 0-1-.96Zm-6.11-5.72a.94.94 0 0 0 .61.23 1 1 0 0 0 .54-.16 7.47 7.47 0 0 0-1.16-.03ZM359 183.16a1 1 0 1 0 .95 1 1 1 0 0 0-.95-1Zm11 0a1 1 0 1 0 1 1 .95.95 0 0 0-1-1Zm11 0a1 1 0 1 0 1 1 .94.94 0 0 0-1-1Zm11 0a1 1 0 1 0 .95 1 .94.94 0 0 0-.95-1Zm-27.49-7.41a1 1 0 1 0 .95.95 1 1 0 0 0-.96-.95Zm11 0a1 1 0 1 0 1 .95 1 1 0 0 0-1.02-.95Zm11 0a1 1 0 1 0 .95.95.95.95 0 0 0-.97-.95ZM359 198.5a1 1 0 1 0 .95.95 1 1 0 0 0-.95-.95Zm11 0a1 1 0 0 0 0 1.91 1 1 0 1 0 0-1.91Zm11 0a1 1 0 0 0 0 1.91 1 1 0 1 0 0-1.91Zm11 0a1 1 0 1 0 .95.95.94.94 0 0 0-.95-.95Zm-38.49-7.41a1 1 0 1 0 .95.95 1 1 0 0 0-.96-.95Zm11 0a1 1 0 1 0 .95.95 1 1 0 0 0-.96-.95Zm11 0a1 1 0 1 0 1 .95 1 1 0 0 0-1.02-.95Zm11 0a1 1 0 1 0 .95.95.95.95 0 0 0-.97-.95Zm11.07 0h-.07a1 1 0 1 0 0 1.91.91.91 0 0 0 .58-.2c-.18-.57-.35-1.14-.53-1.7ZM359 213.84a1 1 0 1 0 .95.95 1 1 0 0 0-.95-.95Zm11 0a1 1 0 1 0 1 .95 1 1 0 0 0-1-.95Zm11 0a1 1 0 0 0 0 1.91 1 1 0 1 0 0-1.91Zm11 0a1 1 0 1 0 .95.95.95.95 0 0 0-.95-.95Zm11 0a1 1 0 1 0 0 1.91.86.86 0 0 0 .36-.08c-.1-.53-.21-1.14-.36-1.83Zm-38.53-7.41a1 1 0 1 0 .95 1 1 1 0 0 0-.92-1Zm11 0a1 1 0 1 0 1 1 1 1 0 0 0-.98-1Zm11 0a1 1 0 1 0 .95 1 1 1 0 0 0-.93-1Zm11 0a1 1 0 1 0 0 1.91 1 1 0 0 0 0-1.91Z" style="fill:#37474f"/><path d="M374.24 174.63c-2.9 8.63-17.44 37.66-26 39.28-13.36 2.54-33.54-.26-42.12-.91-4.67-.36 2.17-29.3 7-27.28 6.3 2.62 26.42 3.78 28.86 4s14.26-13 23.31-22.07c7.58-7.55 12.62-3.95 8.95 6.98Z" style="fill:#ad6359"/><path d="M282.23 182.75a3.93 3.93 0 0 0 .53 4.46 5.89 5.89 0 0 0-2.67 2.95c-.81 2.26 2.39 4.53 2.39 4.53a7.2 7.2 0 0 0-2.32 3.55c-.55 2.25 2.35 5 2.35 5a6.33 6.33 0 0 0-.07 4.41c1.51 3.77 7.6 4.87 11.47 5.61s15.54-.79 17.8-.86l6.29-23.55s-9.1-9-22.42-9.73c-3.94-.2-11.81.97-13.35 3.63Z" style="fill:#ad6359"/><path d="M283 186.85c4.23-.81 8.47-.32 12.74-.07.09 0 .08.16 0 .15-4.24-.3-8.48.25-12.72.12-.11 0-.12-.18-.02-.2ZM282.63 194.38a11.08 11.08 0 0 1 2.93.11c1 .12 2.07.25 3.1.39 2.07.3 4.12.64 6.17 1 .09 0 .08.16 0 .14a160.7 160.7 0 0 0-6.19-.74c-1-.11-2.07-.2-3.11-.28a13.57 13.57 0 0 1-2.91-.38.14.14 0 0 1 .01-.24ZM282.6 203.24a7.65 7.65 0 0 1 2.64.25l2.81.44c1.88.28 3.76.57 5.64.79a.08.08 0 1 1 0 .15c-1.91-.22-3.84-.4-5.75-.64l-2.82-.35a7.5 7.5 0 0 1-2.53-.55s-.03-.08.01-.09Z" style="fill:#263238"/><path d="m334.61 188.43-.2 29.1s12.95-.46 16.69-3.41 18.68-23.37 23.32-38.09-2-15.49-9.62-8.19-21.72 20.78-22.42 21-7.77-.41-7.77-.41Z" style="fill:#455a64"/><path d="M371 168.77a1 1 0 1 1-1-1 1 1 0 0 1 1 1Zm-22.41 14.55-1.35 1.27a1 1 0 0 0 1.77-.48 1 1 0 0 0-.47-.79Zm10.46-.16a1 1 0 1 0 .95 1 1 1 0 0 0-1-1Zm11 0a1 1 0 1 0 1 1 .95.95 0 0 0-1.05-1Zm-5.49-7.41a1 1 0 1 0 .95.95 1 1 0 0 0-1.01-.95ZM337 198.5a1 1 0 1 0 .95.95.94.94 0 0 0-.95-.95Zm11 0a1 1 0 1 0 .95.95 1 1 0 0 0-.95-.95Zm11 0a1 1 0 1 0 .95.95 1 1 0 0 0-.95-.95Zm-16.5-7.41a1 1 0 1 0 .95.95.95.95 0 0 0-.95-.95Zm11 0a1 1 0 1 0 .95.95 1 1 0 0 0-.95-.95Zm11 0a1 1 0 1 0 .95.95 1 1 0 0 0-.95-.95ZM337 213.84a1 1 0 1 0 .95.95.95.95 0 0 0-.95-.95Zm11 0a1 1 0 0 0-1 .95 1 1 0 0 0 .62.89c.39-.11.76-.23 1.12-.35a1.06 1.06 0 0 0 .15-.53 1 1 0 0 0-.89-.96Zm-5.5-7.41a1 1 0 1 0 .95 1 1 1 0 0 0-.95-1Zm11 0a1 1 0 1 0 .95 1 1 1 0 0 0-.95-1Z" style="fill:#37474f"/><path d="M339.43 215c-.25-8-.47-16.12.06-24.16 0-.07.12-.06.13 0 .5 8 .25 16.11 0 24.14a.08.08 0 0 1-.19.02ZM354 211c2.49-3.85 9.36-12.26 18.93-30.25h.07a56.22 56.22 0 0 1-2.42 5.36c.45-.6.9-1.21 1.38-1.78 0-.05.13 0 .1 0a10.83 10.83 0 0 1-1.19 1.73c-.24.29-.49.57-.74.86-10 18.64-14.8 22.61-16 24.08-.06.13-.19.06-.13 0Z" style="fill:#263238"/></svg>